<svg version="1.2" xmlns="http://www.w3.org/2000/svg" viewBox="0 0 24 24" width="24" height="24">
	<title>area-svg</title>
	<style>
		.s0 { fill: #1c274c } 
	</style>
	<path id="Layer" fill-rule="evenodd" class="s0" d="m15.8 12c-0.1 2.1-1.7 3.8-3.8 3.8-2.1 0-3.8-1.7-3.8-3.8 0-2.1 1.7-3.8 3.8-3.8 2.1 0 3.7 1.7 3.7 3.8zm-3.7 2.3c1.2 0 2.2-1.1 2.2-2.3 0-1.2-1-2.3-2.2-2.3-1.2 0-2.3 1.1-2.3 2.3 0 1.2 1.1 2.3 2.3 2.3z"/>
	<path id="Layer" fill-rule="evenodd" class="s0" d="m14.1 1.8c0.6 0.3 1.4 0.8 2.4 1.3l0.8 0.5c0.9 0.6 1.7 1 2.3 1.5 0.7 0.4 1.1 0.9 1.5 1.5 0.3 0.7 0.5 1.3 0.6 2.1 0.1 0.8 0.1 1.7 0.1 2.9v0.8c0 1.2 0 2.1-0.1 2.9-0.1 0.8-0.3 1.4-0.6 2.1-0.4 0.6-0.8 1.1-1.5 1.5-0.6 0.5-1.4 0.9-2.3 1.5l-0.8 0.5c-1 0.5-1.8 1-2.4 1.3-0.8 0.4-1.4 0.5-2.1 0.5-0.7 0-1.3-0.1-2.1-0.5-0.6-0.3-1.4-0.8-2.4-1.3l-0.8-0.5c-0.9-0.6-1.7-1-2.3-1.5-0.7-0.4-1.1-0.9-1.5-1.5-0.3-0.7-0.5-1.3-0.6-2.1-0.1-0.8-0.1-1.7 0-2.9v-0.8c-0.1-1.2-0.1-2.1 0-2.9 0.1-0.8 0.3-1.4 0.6-2.1 0.4-0.6 0.8-1.1 1.5-1.5 0.6-0.5 1.4-0.9 2.3-1.5l0.8-0.5c1-0.5 1.8-1 2.4-1.3 0.8-0.4 1.4-0.6 2.1-0.6 0.7 0 1.3 0.2 2.1 0.6zm-6.6 3.1c-1 0.6-1.7 1-2.3 1.4-0.5 0.4-0.8 0.7-1 1.1-0.2 0.3-0.3 0.8-0.4 1.4 0 0.7-0.1 1.6-0.1 2.8v0.8c0 1.2 0.1 2.1 0.1 2.8 0.1 0.6 0.2 1.1 0.4 1.4 0.2 0.4 0.5 0.7 1 1.1 0.6 0.4 1.3 0.8 2.3 1.4l0.7 0.5c1.1 0.6 1.8 1 2.4 1.3 0.6 0.2 1 0.4 1.4 0.4 0.4 0 0.8-0.2 1.4-0.4 0.6-0.3 1.3-0.7 2.4-1.3l0.7-0.5c1-0.6 1.7-1 2.3-1.4 0.5-0.4 0.8-0.7 1-1.1 0.2-0.3 0.3-0.8 0.4-1.4 0-0.7 0.1-1.6 0.1-2.8v-0.8c0-1.2-0.1-2.1-0.1-2.8-0.1-0.6-0.2-1.1-0.4-1.4-0.2-0.4-0.5-0.7-1-1.1-0.6-0.4-1.3-0.8-2.3-1.4l-0.7-0.5c-1.1-0.6-1.8-1-2.4-1.3-0.6-0.2-1-0.3-1.4-0.3-0.4 0-0.8 0.1-1.4 0.3-0.6 0.3-1.3 0.7-2.4 1.3z"/>
</svg>