<svg version="1.2" xmlns="http://www.w3.org/2000/svg" viewBox="0 0 24 24" width="24" height="24">
	<title>budget-svg</title>
	<style>
		.s0 { fill: #1c274c } 
	</style>
	<path id="Layer" fill-rule="evenodd" class="s0" d="m1.3 12c-0.1-5.9 4.8-10.8 10.7-10.8 5.9 0.1 10.8 4.9 10.8 10.8-0.1 5.9-4.9 10.8-10.8 10.8-5.9-0.1-10.8-4.9-10.8-10.8zm10.8-9.3c-5.1 0.1-9.3 4.2-9.3 9.3 0.1 5.1 4.2 9.3 9.3 9.3 5.1-0.1 9.3-4.2 9.3-9.3-0.1-5.1-4.2-9.3-9.3-9.3zm0 2.6c0.4 0 0.8 0.3 0.8 0.7v0.3c1.6 0.3 3 1.5 3 3.2 0 0.4-0.4 0.8-0.8 0.8-0.4 0-0.7-0.4-0.7-0.8 0-0.7-0.6-1.4-1.5-1.7v3.5c1.6 0.3 3 1.5 3 3.2 0 1.7-1.4 2.9-3 3.2v0.3c0 0.4-0.4 0.8-0.8 0.8-0.4 0-0.7-0.4-0.7-0.8v-0.3c-1.7-0.3-3-1.5-3-3.2 0-0.4 0.3-0.7 0.7-0.7 0.4 0 0.8 0.3 0.8 0.7 0 0.7 0.5 1.4 1.5 1.7v-3.5c-1.7-0.3-3-1.5-3-3.2 0-1.7 1.3-2.9 3-3.2v-0.3c0-0.4 0.3-0.7 0.7-0.7zm-0.7 2.5c-1 0.3-1.5 1-1.5 1.7 0 0.7 0.5 1.4 1.5 1.7zm1.5 5v3.3c0.9-0.3 1.5-1 1.5-1.7 0-0.7-0.6-1.4-1.5-1.6z"/>
</svg>