<svg version="1.2" xmlns="http://www.w3.org/2000/svg" viewBox="0 0 24 24" width="24" height="24">
	<title>company-svg</title>
	<style>
		.s0 { fill: #1c274c } 
	</style>
	<path id="Layer" fill-rule="evenodd" class="s0" d="m10.9 1.3l2.2-0.1c0.9 0 1.6 0 2.2 0.1 0.6 0.1 1.2 0.3 1.6 0.8 0.5 0.4 0.7 1 0.8 1.6q0 0.3 0 0.6 0.9-0.1 1.5 0c0.5 0 0.9 0.1 1.3 0.4q0.5 0.3 0.8 0.8c0.3 0.4 0.4 0.8 0.4 1.3q0.1 0.7 0 1.7v12.8l0.3-0.1c0.4 0 0.7 0.4 0.7 0.8 0 0.4-0.3 0.7-0.7 0.7h-20c-0.4 0-0.8-0.3-0.8-0.7 0-0.4 0.4-0.8 0.8-0.8h0.2v-12.7q0-1 0.1-1.7c0-0.5 0.1-0.9 0.4-1.3q0.3-0.5 0.8-0.8c0.4-0.3 0.8-0.4 1.3-0.4q0.6-0.1 1.5 0 0-0.3 0-0.6c0.1-0.6 0.3-1.2 0.8-1.6 0.4-0.5 1-0.7 1.6-0.8 0.6-0.1 1.3-0.1 2.2-0.1zm-6 4.6c-0.3 0-0.5 0.1-0.6 0.2q-0.2 0.1-0.3 0.3c-0.1 0.1-0.2 0.3-0.2 0.6 0 0.4-0.1 0.9-0.1 1.6v12.7h2.5v-6.5h-0.7c-0.4 0-0.8-0.3-0.8-0.7 0-0.4 0.4-0.8 0.8-0.8h0.7v-1.5h-0.7c-0.4 0-0.8-0.3-0.8-0.7 0-0.4 0.4-0.8 0.8-0.8h0.7v-1.5h-0.7c-0.4 0-0.8-0.3-0.8-0.7 0-0.4 0.4-0.8 0.8-0.8h0.7v-1.3q0-0.1 0.1-0.1c-0.6 0-1 0-1.4 0zm1.4 0q0 0 0 0zm1.4 15.5h3.5v-2.3c0-0.4 0.4-0.7 0.8-0.7 0.4 0 0.7 0.3 0.7 0.7v2.3h3.5c0-1 0-16.9 0-17.4-0.1-0.5-0.2-0.7-0.3-0.8-0.1-0.1-0.3-0.2-0.8-0.3-0.5 0-1.1 0-2.1 0-1 0-3.6 0-4.1 0-0.5 0.1-0.7 0.2-0.8 0.3-0.1 0.1-0.2 0.3-0.3 0.8 0 0.5-0.1 1.1-0.1 2.1zm10-11h0.8c0.4 0 0.7 0.3 0.7 0.8 0 0.4-0.3 0.7-0.7 0.7h-0.8v1.5h0.8c0.4 0 0.7 0.3 0.7 0.8 0 0.4-0.3 0.7-0.7 0.7h-0.8v6.5h2.5c0-0.8 0-13.9 0-14.3 0-0.4-0.1-0.5-0.2-0.6q-0.1-0.3-0.3-0.4c-0.1-0.1-0.3-0.1-0.6-0.2-0.4 0-0.8 0-1.4 0 0 0.1 0 1.4 0 1.5h0.8c0.4 0 0.7 0.3 0.7 0.8 0 0.4-0.3 0.7-0.7 0.7h-0.8zm-8.5-3.2c0-1.6 1.3-2.8 2.8-2.8 1.5 0 2.7 1.2 2.7 2.8 0 1.5-1.2 2.7-2.7 2.7-1.5 0-2.8-1.2-2.8-2.7zm2.8-1.3c-0.7 0-1.3 0.6-1.3 1.3 0 0.6 0.6 1.2 1.3 1.2 0.7 0 1.2-0.6 1.2-1.2 0-0.7-0.5-1.3-1.2-1.3zm-2.8 6.3c0-0.5 0.4-0.8 0.8-0.8h4c0.4 0 0.7 0.3 0.7 0.8 0 0.4-0.3 0.7-0.7 0.7h-4c-0.4 0-0.8-0.3-0.8-0.7zm0 3c0-0.5 0.4-0.8 0.8-0.8h4c0.4 0 0.7 0.3 0.7 0.8 0 0.4-0.3 0.7-0.7 0.7h-4c-0.4 0-0.8-0.3-0.8-0.7z"/>
</svg>