<svg version="1.2" xmlns="http://www.w3.org/2000/svg" viewBox="0 0 24 24" width="24" height="24">
	<title>exercise-svg</title>
	<style>
		.s0 { fill: #1c274c } 
	</style>
	<path id="Layer" fill-rule="evenodd" class="s0" d="m9.9 1.3l0.1-0.1c0.4 0 0.7 0.4 0.7 0.8 0 0.4-0.3 0.7-0.7 0.7-1.9 0-3.3 0.1-4.3 0.2-1 0.1-1.6 0.4-2 0.8-0.4 0.4-0.7 1-0.8 2-0.1 1-0.2 2.4-0.2 4.3 0 0.4-0.3 0.8-0.7 0.8-0.4 0-0.8-0.4-0.8-0.8v-0.1c0-1.8 0-3.2 0.2-4.4 0.2-1.2 0.5-2.1 1.2-2.9 0.8-0.7 1.7-1 2.9-1.2 1.2-0.2 2.6-0.2 4.4-0.1zm8.4 1.6c-1-0.1-2.4-0.1-4.3-0.1-0.4 0-0.8-0.4-0.8-0.8 0-0.4 0.4-0.7 0.8-0.7h0.1c1.8-0.1 3.2-0.1 4.4 0.1 1.2 0.2 2.1 0.5 2.9 1.2 0.7 0.8 1 1.7 1.2 2.9 0.1 1.2 0.1 2.6 0.1 4.4v0.1c0 0.4-0.3 0.8-0.7 0.8-0.4-0.1-0.8-0.4-0.8-0.8 0-1.9 0-3.3-0.1-4.3-0.1-1-0.4-1.6-0.8-2-0.4-0.4-1-0.7-2-0.8zm-8.6 1.9c0.4 0 0.7 0.2 1 0.5 0.3 0.3 0.5 0.6 0.5 1q0.1 0.5 0 1.2 0 0 0 0c0 0 0 1 0 1q0.1 0.7 0 1.2c0 0.4-0.2 0.7-0.5 1-0.3 0.3-0.6 0.5-1 0.5q-0.5 0.1-1.2 0.1 0 0 0 0c0 0-1 0-1 0q-0.7 0-1.2-0.1c-0.4 0-0.7-0.2-1-0.5-0.3-0.3-0.5-0.6-0.5-1q-0.1-0.5-0.1-1.2c0 0 0 0 0 0 0-0.7 0-1.3 0.1-1.7 0.1-0.5 0.2-1 0.6-1.4 0.4-0.4 0.9-0.5 1.4-0.6 0.4-0.1 1-0.1 1.7-0.1 0 0 0 0 0 0q0.7 0 1.2 0.1zm-0.2 1.5c-0.2 0-0.5-0.1-1-0.1-0.7 0-1.2 0.1-1.5 0.1-0.4 0-0.5 0.1-0.5 0.2-0.1 0-0.2 0.1-0.2 0.5 0 0.3-0.1 0.8-0.1 1.5 0 0.5 0.1 0.8 0.1 1q0 0.1 0 0.2 0 0 0 0 0 0 0 0 0.1 0 0.2 0c0.2 0 0.5 0 1 0h1c0.5 0 0.8 0 1 0q0.1 0 0.2 0 0 0 0 0 0 0 0 0 0-0.1 0-0.2c0-0.2 0-0.5 0-1v-1c0-0.5 0-0.8 0-1q0-0.1 0-0.2 0 0 0 0 0 0 0 0-0.1 0-0.2 0zm6-1.6c0.7 0 1.3 0 1.7 0.1 0.5 0.1 1 0.2 1.4 0.6 0.4 0.4 0.5 0.9 0.6 1.4 0.1 0.4 0 1 0 1.7q0.1 0.7 0 1.2c0 0.4-0.2 0.7-0.5 1-0.3 0.3-0.6 0.5-1 0.5q-0.5 0.1-1.2 0.1h-1q-0.7 0-1.2-0.1c-0.4 0-0.7-0.2-1-0.5-0.3-0.3-0.5-0.6-0.5-1q-0.1-0.5-0.1-1.2v-1q0-0.7 0.1-1.2c0-0.4 0.2-0.7 0.5-1 0.3-0.3 0.6-0.5 1-0.5q0.5-0.1 1.2 0zm-1.2 1.5q0 0 0 0 0 0.1 0 0.2c0 0.2-0.1 0.5-0.1 1v1c0 0.5 0.1 0.8 0.1 1q0 0.1 0 0.2 0 0 0 0 0 0 0 0 0.1 0 0.2 0c0.2 0 0.5 0.1 1 0.1h1c0.5 0 0.8-0.1 1-0.1q0.1 0 0.2 0 0 0 0 0 0 0 0 0 0-0.1 0-0.2c0-0.2 0-0.5 0-1 0-0.7 0-1.2 0-1.5 0-0.4-0.1-0.5-0.2-0.5 0-0.1-0.1-0.2-0.5-0.2-0.3 0-0.8 0-1.5 0-0.5 0-0.8 0-1 0q-0.1 0-0.2 0 0 0 0 0zm-6.8 6.5h1q0.7-0.1 1.2 0c0.4 0 0.7 0.2 1 0.5 0.3 0.3 0.5 0.6 0.5 1q0.1 0.5 0 1.2v1q0.1 0.7 0 1.2c0 0.4-0.2 0.7-0.5 1-0.3 0.3-0.6 0.5-1 0.5q-0.5 0.1-1.2 0.1c-0.7 0-1.3 0-1.7-0.1-0.5-0.1-1-0.2-1.4-0.6-0.4-0.4-0.5-0.9-0.6-1.4-0.1-0.4-0.1-1-0.1-1.7q0-0.7 0.1-1.2c0-0.4 0.2-0.7 0.5-1 0.3-0.3 0.6-0.5 1-0.5q0.5-0.1 1.2-0.1zm-5.5 0.5c0.4 0 0.7 0.4 0.7 0.8 0 1.9 0.1 3.3 0.2 4.3 0.1 1 0.4 1.6 0.8 2 0.4 0.4 1 0.7 2 0.8 1 0.1 2.4 0.2 4.3 0.2 0.4 0 0.7 0.3 0.7 0.7 0 0.4-0.3 0.8-0.7 0.8h-0.1c-1.8 0-3.2 0-4.4-0.2-1.2-0.2-2.1-0.5-2.9-1.2-0.7-0.8-1-1.7-1.2-2.9-0.2-1.2-0.2-2.6-0.2-4.4v-0.1c0-0.4 0.4-0.7 0.8-0.7zm13.5-0.5h1q0.7-0.1 1.2 0c0.4 0 0.7 0.2 1 0.5 0.3 0.3 0.5 0.6 0.5 1q0.1 0.5 0 1.2c0 0.7 0.1 1.3 0 1.7-0.1 0.5-0.2 1-0.6 1.4-0.4 0.4-0.9 0.5-1.4 0.6-0.4 0.1-1 0.1-1.7 0.1q-0.7 0-1.2-0.1c-0.4 0-0.7-0.2-1-0.5-0.3-0.3-0.5-0.6-0.5-1q-0.1-0.5-0.1-1.2v-1q0-0.7 0.1-1.2c0-0.4 0.2-0.7 0.5-1 0.3-0.3 0.6-0.5 1-0.5q0.5-0.1 1.2 0zm6.5 0.5c0.4 0 0.7 0.3 0.7 0.7v0.1c0 1.8 0 3.2-0.1 4.4-0.2 1.2-0.5 2.1-1.2 2.9-0.8 0.7-1.7 1-2.9 1.2-1.2 0.2-2.6 0.2-4.4 0.2h-0.1c-0.4 0-0.8-0.4-0.8-0.8 0-0.4 0.4-0.7 0.8-0.7 1.9 0 3.3-0.1 4.3-0.2 1-0.1 1.6-0.4 2-0.8 0.4-0.4 0.7-1 0.8-2 0.1-1 0.1-2.4 0.1-4.3 0-0.4 0.4-0.8 0.8-0.8zm-15.7 1.1q0 0 0 0 0 0.1 0 0.2c0 0.2-0.1 0.5-0.1 1 0 0.7 0.1 1.2 0.1 1.5 0 0.4 0.1 0.5 0.2 0.5 0 0.1 0.1 0.2 0.5 0.2 0.3 0 0.8 0 1.5 0 0.5 0 0.8 0 1 0q0.1 0 0.2 0 0 0 0 0 0 0 0 0 0-0.1 0-0.2c0-0.2 0-0.5 0-1v-1c0-0.5 0-0.8 0-1q0-0.1 0-0.2 0 0 0 0 0 0 0 0-0.1 0-0.2 0c-0.2 0-0.5-0.1-1-0.1h-1c-0.5 0-0.8 0.1-1 0.1q-0.1 0-0.2 0 0 0 0 0zm8 0q0 0 0 0 0 0.1 0 0.2c0 0.2-0.1 0.5-0.1 1v1c0 0.5 0.1 0.8 0.1 1q0 0.1 0 0.2 0 0 0 0 0 0 0 0 0.1 0 0.2 0c0.2 0 0.5 0 1 0 0.7 0 1.2 0 1.5 0 0.4 0 0.5-0.1 0.5-0.2 0.1 0 0.2-0.1 0.2-0.5 0-0.3 0-0.8 0-1.5 0-0.5 0-0.8 0-1q0-0.1 0-0.2 0 0 0 0 0 0 0 0-0.1 0-0.2 0c-0.2 0-0.5-0.1-1-0.1h-1c-0.5 0-0.8 0.1-1 0.1q-0.1 0-0.2 0 0 0 0 0z"/>
</svg>