<svg version="1.2" xmlns="http://www.w3.org/2000/svg" viewBox="0 0 24 24" width="24" height="24">
	<title>level-svg</title>
	<style>
		.s0 { fill: #1765fd } 
	</style>
	<g id="surface1">
		<path id="Layer" fill-rule="evenodd" class="s0" d="m11.8 9c-0.1 1.5-1.3 2.8-2.8 2.8-1.5 0-2.8-1.3-2.8-2.8 0-1.5 1.3-2.8 2.8-2.8 1.5 0 2.7 1.3 2.7 2.8zm-2.7 1.3c0.7-0.1 1.2-0.6 1.2-1.3 0-0.7-0.5-1.3-1.2-1.3-0.7 0.1-1.3 0.6-1.3 1.3 0 0.7 0.6 1.3 1.3 1.3z"/>
		<path id="Layer" fill-rule="evenodd" class="s0" d="m12.2 12.9c0.8 0.4 1.6 1.1 1.6 2.1v0.1c0 0.5 0 1.3-0.9 1.9q-0.5 0.4-1.5 0.6-0.9 0.1-2.4 0.1-1.5 0-2.4-0.1-1-0.2-1.5-0.6c-0.9-0.6-0.8-1.4-0.8-1.9v-0.1c0-1 0.7-1.7 1.5-2.1 0.9-0.4 2-0.7 3.2-0.7 1.2 0 2.3 0.3 3.2 0.7zm-6.3 2.9c0.2 0.1 0.4 0.2 0.9 0.3 0.5 0.1 1.2 0.1 2.2 0.1 1 0 1.7 0 2.2-0.1 0.5-0.1 0.7-0.2 0.9-0.3 0.1-0.1 0.1-0.2 0.1-0.8 0-0.1-0.1-0.4-0.7-0.7-0.6-0.3-1.5-0.6-2.5-0.6-1 0-1.9 0.3-2.5 0.6-0.6 0.3-0.8 0.6-0.8 0.7 0 0.6 0.1 0.7 0.2 0.8z"/>
		<path id="Layer" class="s0" d="m19 12.8c0.4-0.1 0.8-0.4 0.8-0.8-0.1-0.4-0.4-0.8-0.8-0.8h-4c-0.4 0-0.8 0.4-0.8 0.8 0.1 0.4 0.4 0.7 0.8 0.7z"/>
		<path id="Layer" class="s0" d="m19.8 9c-0.1 0.4-0.4 0.8-0.8 0.8l-5-0.1c-0.4 0-0.8-0.3-0.8-0.7 0-0.4 0.4-0.8 0.8-0.8h5c0.4 0 0.7 0.4 0.7 0.8z"/>
		<path id="Layer" class="s0" d="m19 15.8c0.4-0.1 0.8-0.4 0.8-0.8-0.1-0.4-0.4-0.8-0.8-0.8h-3c-0.4 0-0.8 0.4-0.8 0.8 0.1 0.4 0.4 0.7 0.8 0.7z"/>
		<path id="Layer" fill-rule="evenodd" class="s0" d="m9.9 3.3h4.2c1.8 0 3.3 0 4.4 0.1 1.2 0.2 2.1 0.5 2.9 1.2 0.7 0.8 1 1.7 1.2 2.9 0.1 1.1 0.1 2.6 0.1 4.4v0.2c0 1.8 0 3.3-0.1 4.4-0.2 1.2-0.5 2.1-1.2 2.9-0.8 0.7-1.7 1-2.9 1.2-1.1 0.1-2.6 0.1-4.4 0.1h-4.2c-1.8 0-3.3 0-4.4-0.1-1.2-0.2-2.1-0.5-2.9-1.2-0.7-0.8-1-1.7-1.2-2.9-0.2-1.1-0.2-2.6-0.2-4.4v-0.2c0-1.8 0-3.3 0.2-4.4 0.2-1.2 0.5-2.1 1.2-2.9 0.8-0.7 1.7-1 2.9-1.2 1.1-0.1 2.6-0.1 4.4-0.1zm-4.2 1.6c-1 0.1-1.6 0.4-2 0.8-0.4 0.4-0.7 1-0.8 2-0.2 1-0.2 2.4-0.2 4.3 0 1.9 0 3.3 0.2 4.3 0.1 1 0.4 1.6 0.8 2 0.4 0.4 1 0.7 2 0.8 1 0.2 2.4 0.2 4.3 0.2h4c1.9 0 3.3 0 4.3-0.2 1-0.1 1.6-0.4 2-0.8 0.4-0.4 0.7-1 0.8-2 0.2-1 0.2-2.4 0.2-4.3 0-1.9 0-3.3-0.2-4.3-0.1-1-0.4-1.6-0.8-2-0.4-0.4-1-0.7-2-0.8-1-0.1-2.4-0.1-4.3-0.1h-4c-1.9 0-3.3 0-4.3 0.1z"/>
	</g>
</svg>