<svg version="1.2" xmlns="http://www.w3.org/2000/svg" viewBox="0 0 24 24" width="24" height="24">
	<title>provider-svg</title>
	<style>
		.s0 { fill: #1c274c } 
	</style>
	<path id="Layer" fill-rule="evenodd" class="s0" d="m8.3 7.2l2.5 2.5c1.4 1.4 3.6 1.4 4.9 0 1.4-1.3 1.4-3.5 0-4.9l-2.5-2.5c-1.4-1.4-3.6-1.4-4.9 0-1.4 1.3-1.4 3.5 0 4.9zm6.4-1.3c0.7 0.8 0.7 2 0 2.8-0.8 0.7-2 0.7-2.8 0l-0.5-0.5c0.5-0.2 1-0.6 1.6-1.2 0.6-0.6 1-1.1 1.2-1.6zm-1.6-1.5q0 0 0 0.1c-0.2 0.3-0.5 0.9-1.1 1.5-0.6 0.6-1.2 0.9-1.5 1.1q-0.1 0-0.1 0l-1-0.9c-0.8-0.8-0.8-2.1 0-2.8 0.7-0.8 2-0.8 2.8 0zm-9.6 12.3c-0.3 0.2-0.4 0.7-0.2 1 0.3 0.4 0.7 0.4 1.1 0.2 1.2-0.9 2.9-1.6 4.5-1.9 1.7-0.4 3.3-0.2 4.4 0.5q0.2 0.1 0.3 0.2c0.3 0.3 0.3 0.8 0 1.1q-0.1 0-0.1 0 0 0-0.1 0-0.7 0.1-1.6 0c-0.4 0-0.8 0.3-0.8 0.7-0.1 0.4 0.2 0.8 0.6 0.8q1.1 0.1 2 0 0.1 0 0.1 0 0.2 0 0.4 0c1.1-0.2 2-0.8 2.7-1.3l1.8-1.4c0.4-0.3 1-0.3 1.3 0 0.3 0.2 0.4 0.5 0.2 0.7-0.4 0.7-0.9 1.5-1.4 1.9-0.5 0.5-1.3 0.9-2 1.3-0.7 0.3-1.4 0.5-2.3 0.6-1.6 0.3-3.4 0.3-5-0.1q-1.6-0.3-3.2-0.3h-2.2c-0.5 0-0.8 0.3-0.8 0.7 0 0.5 0.3 0.8 0.8 0.8h2.2q1.5 0 2.9 0.3c1.8 0.4 3.7 0.4 5.6 0.1 0.9-0.1 1.8-0.4 2.7-0.8 0.7-0.3 1.6-0.8 2.3-1.5 0.6-0.6 1.3-1.5 1.7-2.2 0.6-0.9 0.3-2.1-0.6-2.7-0.9-0.7-2.2-0.7-3.1 0l-1.8 1.4q-0.3 0.2-0.6 0.4c0-0.6-0.2-1.1-0.6-1.5q-0.2-0.3-0.6-0.5c-1.6-1-3.6-1.1-5.5-0.7-1.8 0.4-3.7 1.2-5.1 2.2z"/>
</svg>