<svg version="1.2" xmlns="http://www.w3.org/2000/svg" viewBox="0 0 512 512" width="25" height="25">
	<title>provider-svg</title>
	<style>
		.s0 { fill: #000000 } 
	</style>
	<g id="Layer">
		<path id="Layer" fill-rule="evenodd" class="s0" d="m162.9 13.6c19.4 7.3 37.1 23.5 46.8 42.9 18.9 37.5 6 85.6-29.3 109.1-15.2 10.1-29.4 14.4-47.5 14.5-34.8 0.1-64.1-18.6-78.8-50.3-4.9-10.6-7-18.9-7.7-30.8-2.7-43.4 28.8-82.7 72.3-90 13.2-2.2 31-0.3 44.2 4.6zm-27.9 10.8c-13.4-0.5-21.5 1.3-34 7.3-7.9 3.8-10.8 5.9-18 13.2-9.4 9.5-14.2 17.4-18.2 30.1-3 9.6-3.2 27-0.5 37 8.4 30.8 35.7 52 67.2 52.1 12.7 0.1 21.5-2 32.5-7.3 6.9-3.4 10.2-5.9 17.5-13.3 7.4-7.3 9.9-10.6 13.3-17.5 5.3-11 7.5-20.1 7.5-32 0-18.5-7.1-35.8-20.1-48.8-8.9-8.9-17.4-14.2-28.7-17.8-5.9-1.9-10.8-2.7-18.5-3z"/>
		<path id="Layer" fill-rule="evenodd" class="s0" d="m152 32.8c19.3 6.3 35.3 22.2 41.7 41.6 3.4 10.3 3.8 27.5 0.9 37.1-5.2 17.3-18.2 32.9-33.6 40.3-20.2 9.7-39.3 9.3-59.3-1-13.8-7.2-24.7-20.1-30.5-36-2.4-6.5-2.7-8.7-2.7-20.3 0-10.1 0.4-14.2 1.9-18.5 7.6-22.3 24.5-38.5 46.6-44.5 7.9-2.1 26.4-1.4 35 1.3zm-31 14.2c-13.4 3.2-26.5 13.9-32.4 26.5-7.3 15.6-5.7 34.4 4.2 48.6 10.5 15 29.7 23.1 47.2 20 15.5-2.8 28.7-12.6 35.5-26.4 9.4-19.1 6-40.4-8.9-55.3-6.5-6.5-12.7-10.2-21.5-12.8-5.8-1.7-18.1-2-24.1-0.6z"/>
		<path id="Layer" class="s0" d="m130.5 50.8c-2.9 0.6-5.3 3-6 6.1-0.4 1.8-2.2 3.5-5.8 5.6-7.1 4.1-11.1 11.5-10.3 19.3 0.2 2.9 1.3 6.7 2.3 8.5 2.8 4.8 10.2 9.3 18.4 11.2 9.5 2.1 12.9 3.9 12.9 6.9 0 3.3-2.3 4.8-7.9 5.4-5.6 0.5-10.6-1.6-11.6-5-2.1-6.9-10.4-9.3-14.4-4.2-2.6 3.3-2.6 5.7 0 11 2.3 4.9 7.7 10 12.6 12 1.8 0.8 3.3 2.1 3.3 2.8 0 2.8 5.1 7.6 8 7.6 3.5 0 8-3.5 8-6.3 0-1.7 1.3-2.8 5.8-4.8 8.3-3.7 11.5-8.2 12-16.8 0.3-5.5-0.1-7.4-2-11.1-3.1-5.8-10.4-10.3-20.2-12.4-8.2-1.9-11.6-3.8-11.6-6.6 0-4.2 8.8-6.8 13.9-4.1 1.1 0.7 2.8 2.5 3.6 4.1 2.8 5.5 8.9 6.7 13 2.5 3.3-3.2 3.2-7.2-0.2-12.3-3-4.3-6-7-10.7-9.4-1.7-0.9-3.3-2.9-4-4.8-1.2-3.6-5.4-6-9.1-5.2z"/>
		<path id="Layer" fill-rule="evenodd" class="s0" d="m373.3 42.4c2.9 1.2 3.7 2.5 6.7 10.2 1.8 4.9 3.8 9.4 4.4 10 0.6 0.7 3.6 2 6.6 2.9 3 1 8.5 3.3 12.1 5.1l6.5 3.2 8.8-3.9c4.9-2.1 10-3.9 11.4-3.9 1.9 0 5.9 3.3 16.4 13.7 7.6 7.6 14.2 14.8 14.5 16.1 0.4 1.6-0.8 5.6-3.6 11.8l-4.1 9.5 2.7 5.2c1.4 2.9 3.8 8.6 5.3 12.7l2.8 7.5 9.3 3.8c5.2 2 10 4.5 10.7 5.4 0.9 1.2 1.2 7.3 1.2 21.9v20.3l-2.4 1.9c-1.4 1-6.2 3.3-10.8 5l-8.4 3.2-1.7 5.5c-0.9 3-3.3 8.8-5.2 12.9l-3.5 7.4 4 8.7c2.2 4.8 4 9.9 4 11.3 0 1.9-3.1 5.7-13.1 15.8-7.3 7.3-14.5 13.8-16.1 14.5-2.6 1.1-3.9 0.8-12.6-3l-9.7-4.2-7 3.5c-3.8 1.8-9.6 4.2-12.7 5.1l-5.6 1.8-3.3 8.6c-5 13.4-4.3 13.1-27.4 13.1-23.1 0-22.6 0.3-27.5-13.1-3.1-8.4-3.3-8.7-7.3-9.8-2.3-0.7-8-3-12.7-5.2l-8.6-4-9.3 4.1c-6.7 2.9-10.2 3.9-12.1 3.5-1.7-0.4-7.8-5.7-16.3-14.4-10.5-10.5-13.7-14.4-13.7-16.3 0-1.4 1.8-6.5 3.9-11.2l4-8.6-3.4-7.4c-1.9-4-4.2-9.9-5.2-13l-1.7-5.6-9.2-3.6c-5.1-1.9-9.9-4.3-10.8-5.3-1.4-1.5-1.6-4.9-1.6-21.7 0-14.5 0.3-20.5 1.3-21.7 0.6-0.9 5.4-3.4 10.6-5.4l9.3-3.8 2.8-7.5c1.5-4.1 3.9-9.8 5.3-12.7l2.7-5.1-4-9c-2.2-4.9-4-10-4-11.3 0-3.5 27.6-30.9 31.2-30.9 1.4 0 6.5 1.8 11.4 3.9l8.8 3.9 6-3c3.4-1.7 9-4.1 12.6-5.3l6.5-2.2 4-9.8c3.4-8.3 4.5-10.1 7-11.1 4.3-1.9 35.4-1.9 39.8 0zm-8.6 14.6h-22.5l-2.8 7.6c-3.8 10.5-5.2 12-13.7 14.5-4 1.1-11.8 4.4-17.5 7.2l-10.2 5.1-5.3-2.3c-2.8-1.2-7.1-3-9.5-3.9l-4.2-1.6-7.7 7.6-7.7 7.7 2.3 5.3c1.2 2.9 3 7.2 3.9 9.5l1.6 4.2-5.1 10.8c-2.9 5.9-6 13.5-6.9 16.8-2.3 7.7-4.3 9.7-13.4 13.3l-7.5 3-0.3 11.4-0.3 11.5 8.6 3.3c4.7 1.8 8.9 3.8 9.5 4.5 0.5 0.6 2.3 5.4 4 10.6 1.7 5.2 4.9 12.7 7.1 16.7 2.1 4.1 3.9 8 3.9 8.9 0 0.8-1.6 5.3-3.7 10l-3.6 8.5 8 7.9 7.9 8 8.1-3.5c4.5-2 9-3.6 10.1-3.6 1.1 0 5.7 1.9 10.3 4.3 4.6 2.3 12.3 5.5 17.1 7 4.7 1.5 9.1 3.3 9.6 4 0.6 0.7 2.4 4.9 4.2 9.4l3.1 8.3h22.7l2.7-7.3c4.2-11 4.4-11.2 14.2-14.4 4.9-1.5 12.6-4.7 17.2-7 4.6-2.4 9.2-4.3 10.3-4.3 1.1 0 5.6 1.6 10.1 3.6l8.1 3.5 16-16-3.7-8.3c-2.1-4.6-3.7-9.1-3.7-10 0-0.9 1.8-4.9 3.9-9 2.2-4 5.4-11.5 7.1-16.7 1.7-5.2 3.5-10 4-10.6 0.6-0.7 4.8-2.7 9.5-4.5l8.6-3.3-0.3-11.5-0.3-11.4-7.5-3c-9.1-3.6-11.1-5.6-13.4-13.3-0.9-3.3-4-10.9-6.9-16.8l-5.1-10.8 1.6-4.2c0.9-2.3 2.7-6.6 3.9-9.5l2.3-5.3-7.7-7.7-7.7-7.6-4.2 1.6c-2.4 0.9-6.7 2.7-9.5 3.9l-5.3 2.3-10.2-5.1c-5.7-2.8-13.5-6.1-17.5-7.2-4-1.2-7.9-2.8-8.7-3.7-0.8-0.8-3-5.3-4.7-9.9z"/>
		<path id="Layer" fill-rule="evenodd" class="s0" d="m369.9 103.6c8.8 2.2 19.3 7.1 26.7 12.6 27.6 20.5 36.3 59.1 20.4 89.8-9.3 17.7-24.2 30-44 36.1-10.7 3.4-28.3 3.4-39 0-20.6-6.3-35.2-18.6-44.6-37.6-5.9-11.9-7.7-20.9-7.1-34.5 0.8-17.1 6.4-31.2 17.6-44.1 8.6-9.9 23.8-19.2 36.8-22.3 8.1-2 25.2-2 33.2 0zm-30.6 15.9c-19.8 5.4-36.5 23.2-40.4 43.3-1.6 8.5-0.6 21.1 2.3 29.2 11.1 30.5 46.5 45.4 75.3 31.7 16.4-7.9 27-20.8 31-38.1 4.4-18.7-1-37.4-14.9-51.1-7.7-7.7-15.9-12.6-25.1-15-7.3-1.9-21.2-1.8-28.2 0z"/>
		<path id="Layer" class="s0" d="m348.7 129.4c-2.9 2.2-3.7 7.2-3.7 21.8v13.8h-15.1c-15.1 0-18 0.6-20.6 3.9-2 2.6-1.5 7 1.2 9.6 2.4 2.4 2.8 2.5 18.4 2.5h15.9l0.4 16.6 0.3 16.6 2.8 2.4c3.4 2.9 6.6 3.1 10 0.3 2.6-2 2.7-2 2.9-18.7l0.3-16.7 16.8-0.5c16.2-0.5 17-0.6 18.8-2.9 2.1-2.6 2.4-6.8 0.6-9.2-2.6-3.4-5.5-3.9-21.1-3.9h-15.6v-16.3c0-15.8-0.1-16.4-2.3-18.5-2.6-2.5-7.3-2.8-10-0.8z"/>
		<path id="Layer" fill-rule="evenodd" class="s0" d="m190.5 288.2c5.5-0.5 18.4 2.9 40.7 10.7 28.1 9.9 43.9 14.7 59.3 18.2 11.9 2.6 18.2 5.6 23.5 11 9.5 9.8 12.2 25.7 6.4 37.1-3.1 6.1 1 4 57.1-28.7 61.4-35.8 67.9-38.8 85.5-38.9 15.6-0.2 26.1 5.8 32.2 18.1 3 6.2 3.3 7.5 3.3 16.4 0 9-0.2 10-3.5 16.4-1.9 3.8-5.1 8.1-7 9.6-3.8 3-163.6 101.6-169.8 104.8-10.9 5.5-26.3 8-38.2 6.2-4.1-0.7-33.4-8.2-65.1-16.7l-57.6-15.5-7.2 4.2c-3.9 2.2-7.1 4.4-7.1 4.9 0 0.5 1.9 4.1 4.2 8.1 3.5 6 4.3 8.5 4.6 13.6 0.5 8-2.2 14.1-8.1 18.2-6.4 4.3-26.8 15.6-30.6 16.9-7.3 2.6-15.8 0.4-21.3-5.4-2.7-2.9-71.7-123.8-76.4-133.9-4.2-8.8-2.4-19 4.4-24.6 1.6-1.4 9.7-6.4 17.8-11 14.1-7.9 15.2-8.4 20.9-8.4 9 0 14.3 3.5 19.8 13 2.3 4.1 4.6 7.5 5.1 7.5 0.5 0 15.6-8.5 33.5-18.9 17.9-10.4 35.5-20.5 39.1-22.4 8.3-4.5 19.8-8.5 27.5-9.6 3.3-0.5 6.5-0.9 7-0.9zm5 16.6c-8.8-0.9-19.2 1.5-30 7-4 2-73.3 41.8-74.3 42.7-0.3 0.2 41.7 74.6 42.9 75.9 0.4 0.5 4.7-1.3 10.1-4.4 6.1-3.6 10.2-5.3 12.3-5.3 1.6 0.1 29.1 7.2 61 15.8 31.8 8.5 61 16.1 64.7 16.7 8.2 1.3 18.7-0.1 26.3-3.6 5.9-2.7 166-101 169.2-103.9 5.5-5 7-18.6 2.6-24.5-7.9-10.6-22.1-10.5-43.8 0.2-6 3-31.5 17.4-56.5 32.1-33.5 19.5-47.5 27.2-53 28.9-18.5 5.8-32.4 4.3-81.5-9.4-17.8-4.9-22.4-6.6-24.2-8.6-2.9-3.1-2.9-6.4-0.2-9.8 2.9-3.7 6-3.4 28.7 3 34.5 9.7 41.7 10.9 48.6 8 10.3-4.3 12.2-18.5 3.6-26.7-3.4-3.3-5.2-3.9-19.6-7.4-16.5-3.9-32-8.8-63.4-19.7-10.2-3.6-20.7-6.8-23.5-7zm-136.9 30.2c-1.4 0-25.5 13.7-27.8 15.8-1 0.8-1.8 2.3-1.8 3.3 0 1 16.7 31.3 37.1 67.4 29.1 51.4 37.6 65.6 39.4 66.1 1.7 0.4 6.1-1.6 16.1-7.3 12-6.8 13.9-8.2 14.2-10.6 0.3-2-8.5-18.3-36.3-67.4-20.1-35.7-37.3-65.4-38.2-66.1-0.9-0.6-2.2-1.2-2.7-1.2z"/>
		<path id="Layer" class="s0" d="m50.5 354.2c-5.2 3-6.2 9.9-2 13.8 5.5 5.2 14.5 1.5 14.5-5.9-0.1-7-6.8-11.2-12.5-7.9z"/>
	</g>
</svg>