<svg version="1.2" xmlns="http://www.w3.org/2000/svg" viewBox="0 0 24 24" width="24" height="24">
	<title>request-svg</title>
	<style>
		.s0 { fill: #1c274c } 
	</style>
	<path id="Layer" fill-rule="evenodd" class="s0" d="m15 2.3q0 0 0.1 0 0.7 0 1.2 0c0.6 0.1 1.2 0.3 1.6 0.8 0.5 0.4 0.7 1 0.8 1.6q0 0.5 0 1.2 0.1 0.1 0.1 0.1 0 0-0.1 0.1 0.1 0.4 0.1 0.8v0.2q0 0.4-0.1 0.8 0.1 0.1 0.1 0.1 0 0-0.1 0.1 0 0.7 0 1.2c-0.1 0.6-0.3 1.2-0.8 1.6-0.4 0.5-1 0.7-1.6 0.8q-0.5 0-1.2 0-0.1 0-0.1 0 0 0-0.1 0-0.4 0.1-0.8 0h-4.2q-0.4 0.1-0.8 0-0.1 0-0.1 0 0 0-0.1 0-0.7 0-1.2 0c-0.6-0.1-1.2-0.3-1.6-0.8-0.5-0.4-0.7-1-0.8-1.6q0-0.5 0-1.2 0-0.1 0-0.1 0 0 0-0.1-0.1-0.4 0-0.8v-0.2q-0.1-0.4 0-0.8 0-0.1 0-0.1 0 0 0-0.1 0-0.7 0-1.2c0.1-0.6 0.3-1.2 0.8-1.6 0.4-0.5 1-0.7 1.6-0.8q0.5 0 1.2 0 0.1 0 0.1 0 0 0 0.1 0 0.4-0.1 0.8 0h4.2q0.4-0.1 0.8 0 0.1 0 0.1 0zm-0.7 1.5q-0.1-0.1-0.3 0h-4q-0.2-0.1-0.3 0c-0.3 1.4-1.5 2.6-2.9 2.9q0 0.1 0 0.3 0 0.2 0 0.3c1.4 0.3 2.6 1.5 2.9 2.9q0.1 0.1 0.3 0.1h4q0.2 0 0.3-0.1c0.3-1.4 1.5-2.6 2.9-2.9q0.1-0.1 0.1-0.3 0-0.2-0.1-0.3c-1.4-0.3-2.6-1.5-2.9-2.9zm1.6 0c0.2 0.6 0.7 1.1 1.3 1.3q0-0.1 0-0.2c-0.1-0.5-0.2-0.7-0.3-0.8-0.1-0.1-0.3-0.2-0.8-0.3q-0.1 0-0.2 0zm1.3 5.1c-0.6 0.2-1.1 0.7-1.3 1.3q0.1 0 0.2 0c0.5-0.1 0.7-0.2 0.8-0.3 0.1-0.1 0.2-0.3 0.3-0.8q0-0.1 0-0.2zm-9.1 1.3c-0.2-0.6-0.7-1.1-1.3-1.3q0 0.1 0 0.2c0.1 0.5 0.2 0.7 0.3 0.8 0.1 0.1 0.3 0.2 0.8 0.3q0.1 0 0.2 0zm-1.3-5.1c0.6-0.2 1.1-0.7 1.3-1.3q-0.1 0-0.2 0c-0.5 0.1-0.7 0.2-0.8 0.3-0.1 0.1-0.2 0.3-0.3 0.8q0 0.1 0 0.2zm3.5 1.9c0-1 0.7-1.7 1.7-1.7 1 0 1.8 0.7 1.8 1.7 0 1-0.8 1.8-1.8 1.8-1 0-1.7-0.8-1.7-1.8zm1.7-0.2c-0.1 0-0.2 0.1-0.2 0.2 0 0.1 0.1 0.3 0.2 0.3 0.1 0 0.3-0.2 0.3-0.3 0-0.1-0.2-0.2-0.3-0.2zm-3.3 7.6c1.8-0.3 3.8-0.2 5.5 0.7q0.3 0.2 0.6 0.5c0.4 0.5 0.6 1 0.6 1.5q0.3-0.2 0.5-0.4l1.9-1.4c0.9-0.6 2.2-0.6 3.1 0 0.8 0.7 1.1 1.8 0.5 2.8-0.4 0.6-1 1.6-1.7 2.2-0.6 0.6-1.6 1.1-2.3 1.5-0.8 0.4-1.8 0.6-2.7 0.8-1.8 0.3-3.7 0.2-5.6-0.2q-1.4-0.3-2.8-0.3h-2.3c-0.4 0-0.7-0.3-0.7-0.7 0-0.4 0.3-0.8 0.7-0.8h2.3q1.6 0 3.1 0.4c1.7 0.3 3.4 0.3 5.1 0.1 0.8-0.2 1.6-0.4 2.3-0.7 0.7-0.3 1.4-0.8 1.9-1.2 0.5-0.5 1.1-1.3 1.5-1.9 0.1-0.2 0.1-0.5-0.2-0.8-0.4-0.2-1-0.2-1.3 0l-1.9 1.4c-0.7 0.6-1.6 1.1-2.7 1.3q-0.1 0-0.3 0.1-0.1 0-0.2 0-0.8 0.1-1.9 0c-0.4-0.1-0.7-0.4-0.7-0.8 0-0.5 0.4-0.8 0.8-0.7q1 0.1 1.7 0 0 0 0 0 0 0 0.1-0.1c0.3-0.3 0.4-0.7 0.1-1.1q-0.1-0.1-0.3-0.2c-1.2-0.7-2.8-0.8-4.4-0.5-1.7 0.3-3.3 1.1-4.6 2-0.3 0.2-0.8 0.1-1-0.2-0.3-0.4-0.2-0.8 0.2-1.1 1.4-1 3.2-1.8 5.1-2.2z"/>
</svg>