<svg version="1.2" xmlns="http://www.w3.org/2000/svg" viewBox="0 0 24 24" width="24" height="24">
	<title>seconduser-svg</title>
	<style>
		.s0 { fill: #1765fd } 
	</style>
	<g id="surface1">
		<path id="Layer" fill-rule="evenodd" class="s0" d="m16.8 6c-0.1 2.6-2.2 4.8-4.8 4.8-2.6 0-4.8-2.2-4.8-4.8 0-2.6 2.2-4.8 4.8-4.8 2.6 0 4.7 2.2 4.7 4.8zm-4.7 3.3c1.8 0 3.2-1.5 3.2-3.3 0-1.8-1.4-3.3-3.2-3.3-1.8 0-3.3 1.5-3.3 3.3 0 1.8 1.5 3.3 3.3 3.3z"/>
		<path id="Layer" fill-rule="evenodd" class="s0" d="m16 12.3c2.1-0.1 3.9 1.5 4.1 3.6l0.6 5.5c0.1 0.4-0.2 0.8-0.6 0.8-0.4 0.1-0.8-0.2-0.8-0.6l-0.7-5.5c-0.1-1.1-0.9-1.9-1.8-2.2v4.2c0 0.8 0 1.6-0.1 2.2-0.1 0.6-0.3 1.2-0.8 1.6-0.4 0.5-1 0.7-1.6 0.8-0.6 0-1.4 0-2.2 0h-0.2c-0.8 0-1.6 0-2.2 0-0.6-0.1-1.2-0.3-1.6-0.8-0.5-0.4-0.7-1-0.8-1.6 0-0.6 0-1.4 0-2.2v-4.2c-1 0.3-1.8 1.1-1.9 2.2l-0.7 5.5c0 0.4-0.4 0.7-0.8 0.6-0.4 0-0.7-0.4-0.6-0.8l0.6-5.5c0.2-2.1 2-3.7 4.1-3.7zm-7.2 7.9c0.1 0.5 0.2 0.7 0.3 0.8 0.1 0.1 0.3 0.2 0.8 0.3 0.5 0 1.1 0 2.1 0 1 0 1.6 0 2.1 0 0.5-0.1 0.7-0.2 0.8-0.3 0.1-0.1 0.2-0.3 0.3-0.8 0.1-0.5 0.1-1.1 0.1-2.1v-4.3h-6.5v4.3c0 1 0 1.6 0 2.1z"/>
	</g>
</svg>